<svg width="48" height="48" viewBox="0 0 48 48" fill="none" xmlns="http://www.w3.org/2000/svg">
<path fill-rule="evenodd" clip-rule="evenodd" d="M44.3944 19.2113C42.2308 21.5259 38.6848 23.2872 35.081 24C38.6848 24.7128 42.2308 26.4742 44.3942 28.7887L46.8504 31.4165L43.3188 32.0986C40.2079 32.6993 36.3038 32.04 32.9692 30.4982C35.4657 33.1934 37.2993 36.7025 37.6893 39.8467L38.1319 43.4162L34.8739 41.8925C32.004 40.5502 29.2332 37.7218 27.4416 34.5144C27.8772 38.1622 27.298 42.079 25.7652 44.8519L24.0252 48L22.2851 44.8519C20.7524 42.079 20.1731 38.1622 20.6089 34.5144C18.8173 37.7218 16.0465 40.5499 13.1765 41.8925L9.91843 43.4162L10.361 39.8467C10.7509 36.7025 12.5845 33.1934 15.0812 30.4982C11.7466 32.04 7.84248 32.6995 4.73162 32.0986L1.19995 31.4165L3.65621 28.7887C5.81978 26.4739 9.36588 24.7128 12.9698 24C9.36576 23.2872 5.81978 21.5259 3.65621 19.2113L1.19995 16.5835L4.73162 15.9014C7.84248 15.3006 11.7467 15.96 15.0812 17.5017C12.5845 14.8067 10.7509 11.2974 10.361 8.15318L9.91843 4.58354L13.1766 6.10762C16.0466 7.44994 18.8174 10.2782 20.609 13.4856C20.1732 9.83777 20.7525 5.92097 22.2852 3.14801L24.0254 0L25.7654 3.14801C27.2983 5.92097 27.8774 9.83777 27.4416 13.4856C29.2334 10.2782 32.0042 7.45006 34.8741 6.10762L38.1324 4.58354L37.6896 8.15318C37.2998 11.2974 35.4662 14.8067 32.9695 17.5017C36.304 15.96 40.2081 15.3005 43.319 15.9014L46.8508 16.5835L44.3944 19.2113ZM19.501 28.487C21.9678 30.9538 25.9672 30.9538 28.434 28.487C30.9007 26.0203 30.9007 22.0208 28.434 19.554C25.9672 17.0873 21.9678 17.0873 19.501 19.554C17.0342 22.0208 17.0342 26.0203 19.501 28.487Z" fill="url(#paint0_linear_2013_1595)"/>
<defs>
<linearGradient id="paint0_linear_2013_1595" x1="24.0254" y1="0" x2="24.0254" y2="48" gradientUnits="userSpaceOnUse">
<stop stop-color="#49235F"/>
<stop offset="1" stop-color="#D387FF"/>
</linearGradient>
</defs>
</svg>
