<svg width="667" height="667" viewBox="0 0 667 667" fill="none" xmlns="http://www.w3.org/2000/svg">
<g opacity="0.15" clip-path="url(#clip0_2009_271)">
<rect y="0.00012207" width="0.548446" height="1200" fill="#D387FF"/>
<rect x="44.4241" y="0.00012207" width="0.548446" height="1200" fill="#D387FF"/>
<rect x="88.8481" y="0.00012207" width="0.548446" height="1200" fill="#D387FF"/>
<rect x="133.272" y="0.00012207" width="0.548446" height="1200" fill="#D387FF"/>
<rect x="177.697" y="0.00012207" width="0.548446" height="1200" fill="#D387FF"/>
<rect x="222.121" y="0.00012207" width="0.548446" height="1200" fill="#D387FF"/>
<rect x="266.545" y="0.00012207" width="0.548446" height="1200" fill="#D387FF"/>
<rect x="310.969" y="0.00012207" width="0.548446" height="1200" fill="#D387FF"/>
<rect x="355.393" y="0.00012207" width="0.548446" height="1200" fill="#D387FF"/>
<rect x="399.817" y="0.00012207" width="0.548446" height="1200" fill="#D387FF"/>
<rect x="444.241" y="0.00012207" width="0.548446" height="1200" fill="#D387FF"/>
<rect x="488.666" y="0.00012207" width="0.548446" height="1200" fill="#D387FF"/>
<rect x="533.09" y="0.00012207" width="0.548446" height="1200" fill="#D387FF"/>
<rect y="666.911" width="0.548446" height="1200" transform="rotate(-90 0 666.911)" fill="#D387FF"/>
<rect x="577.514" y="0.00012207" width="0.548446" height="1200" fill="#D387FF"/>
<rect y="622.486" width="0.548446" height="1200" transform="rotate(-90 0 622.486)" fill="#D387FF"/>
<rect x="621.938" y="0.00012207" width="0.548446" height="1200" fill="#D387FF"/>
<rect y="578.062" width="0.548446" height="1200" transform="rotate(-90 0 578.062)" fill="#D387FF"/>
<rect x="666.362" y="0.00012207" width="0.548446" height="1200" fill="#D387FF"/>
<rect y="533.638" width="0.548446" height="1200" transform="rotate(-90 0 533.638)" fill="#D387FF"/>
<rect y="489.214" width="0.548446" height="1200" transform="rotate(-90 0 489.214)" fill="#D387FF"/>
<rect y="444.79" width="0.548446" height="1200" transform="rotate(-90 0 444.79)" fill="#D387FF"/>
<rect y="400.366" width="0.548446" height="1200" transform="rotate(-90 0 400.366)" fill="#D387FF"/>
<rect y="355.942" width="0.548446" height="1200" transform="rotate(-90 0 355.942)" fill="#D387FF"/>
<rect y="311.517" width="0.548446" height="1200" transform="rotate(-90 0 311.517)" fill="#D387FF"/>
<rect y="267.093" width="0.548446" height="1200" transform="rotate(-90 0 267.093)" fill="#D387FF"/>
<rect y="222.669" width="0.548446" height="1200" transform="rotate(-90 0 222.669)" fill="#D387FF"/>
<rect y="178.245" width="0.548446" height="1200" transform="rotate(-90 0 178.245)" fill="#D387FF"/>
<rect y="133.821" width="0.548446" height="1200" transform="rotate(-90 0 133.821)" fill="#D387FF"/>
<rect y="89.3967" width="0.548446" height="1200" transform="rotate(-90 0 89.3967)" fill="#D387FF"/>
<rect y="44.9727" width="0.548446" height="1200" transform="rotate(-90 0 44.9727)" fill="#D387FF"/>
<rect y="0.548462" width="0.548446" height="1200" transform="rotate(-90 0 0.548462)" fill="#D387FF"/>
</g>
<defs>
<clipPath id="clip0_2009_271">
<rect width="667" height="667" fill="white"/>
</clipPath>
</defs>
</svg>
