<svg width="20" height="20" viewBox="0 0 20 20" fill="none" xmlns="http://www.w3.org/2000/svg">
<path d="M11.2812 9.85674C11.2812 12.999 8.75579 15.5463 5.6407 15.5463C2.52561 15.5463 0 12.9984 0 9.85674C0 6.71505 2.52542 4.16699 5.6407 4.16699C8.75598 4.16699 11.2812 6.71448 11.2812 9.85674Z" fill="#D387FF"/>
<path d="M17.469 9.85675C17.469 12.8145 16.2063 15.2132 14.6487 15.2132C13.091 15.2132 11.8283 12.8145 11.8283 9.85675C11.8283 6.89898 13.0908 4.50029 14.6485 4.50029C16.2061 4.50029 17.469 6.89821 17.469 9.85675Z" fill="#D387FF"/>
<path d="M20 9.85674C20 12.5062 19.556 14.6553 19.0081 14.6553C18.4602 14.6553 18.0163 12.5067 18.0163 9.85674C18.0163 7.20673 18.4604 5.05819 19.0081 5.05819C19.5558 5.05819 20 7.20654 20 9.85674Z" fill="#D387FF"/>
</svg>
