<svg width="48" height="48" viewBox="0 0 48 48" fill="none" xmlns="http://www.w3.org/2000/svg">
<g clip-path="url(#clip0_2009_903)">
<mask id="mask0_2009_903" style="mask-type:luminance" maskUnits="userSpaceOnUse" x="0" y="0" width="48" height="48">
<path d="M48 0H0V48H48V0Z" fill="white"/>
</mask>
<g mask="url(#mask0_2009_903)">
<path fill-rule="evenodd" clip-rule="evenodd" d="M24 24C24 24 27 15.9664 27 10.2857C27 4.60507 25.657 0 24 0C22.3431 0 21 4.60507 21 10.2857C21 15.9664 24 24 24 24ZM24 24C24 24 27.5594 31.8019 31.5761 35.8188C35.593 39.8357 39.799 42.1421 40.9706 40.9706C42.1421 39.799 39.8357 35.593 35.8188 31.5761C31.8019 27.5594 24 24 24 24ZM24 24C24 24 32.0338 21 37.7143 21C43.3949 21 48 22.3431 48 24C48 25.657 43.3949 27 37.7143 27C32.0338 27 24 24 24 24ZM24 24C24 24 16.198 27.5594 12.1812 31.5761C8.16439 35.593 5.85785 39.799 7.02943 40.9706C8.20102 42.1421 12.407 39.8357 16.4238 35.8188C20.4407 31.8019 24 24 24 24ZM24 24C24.0067 24.0178 27 32.04 27 37.7143C27 43.3949 25.657 48 24 48C22.3431 48 21 43.3949 21 37.7143C21 32.0338 24 24 24 24ZM24 24C24 24 15.9664 21 10.2857 21C4.60507 21 0 22.3431 0 24C0 25.657 4.60507 27 10.2857 27C15.9664 27 24 24 24 24ZM24 24C24 24 31.8019 20.4407 35.8188 16.4238C39.8357 12.407 42.1421 8.20099 40.9706 7.02943C39.799 5.85785 35.593 8.16439 31.5761 12.1812C27.5594 16.198 24 24 24 24ZM16.4238 12.1812C20.4407 16.198 24 24 24 24C24 24 16.198 20.4407 12.1812 16.4238C8.16439 12.407 5.85787 8.20102 7.02943 7.02943C8.20102 5.85787 12.407 8.16439 16.4238 12.1812Z" fill="url(#paint0_linear_2009_903)"/>
</g>
</g>
<defs>
<linearGradient id="paint0_linear_2009_903" x1="24" y1="0" x2="24" y2="48" gradientUnits="userSpaceOnUse">
<stop stop-color="#49235F"/>
<stop offset="1" stop-color="#D387FF"/>
</linearGradient>
<clipPath id="clip0_2009_903">
<rect width="48" height="48" fill="white"/>
</clipPath>
</defs>
</svg>
