<svg width="2016" height="2000" viewBox="0 0 2016 2000" fill="none" xmlns="http://www.w3.org/2000/svg">
<rect x="16" width="1" height="2000" fill="#D387FF" fill-opacity="0.05"/>
<rect x="2000.5" y="15.5" width="1" height="2000" transform="rotate(90 2000.5 15.5)" fill="#D387FF" fill-opacity="0.05"/>
<rect x="57" width="1" height="2000" fill="#D387FF" fill-opacity="0.05"/>
<rect x="2000.5" y="56.5" width="1" height="2000" transform="rotate(90 2000.5 56.5)" fill="#D387FF" fill-opacity="0.05"/>
<rect x="98" width="1" height="2000" fill="#D387FF" fill-opacity="0.05"/>
<rect x="2000.5" y="97.5" width="1" height="2000" transform="rotate(90 2000.5 97.5)" fill="#D387FF" fill-opacity="0.05"/>
<rect x="139" width="1" height="2000" fill="#D387FF" fill-opacity="0.05"/>
<rect x="2000.5" y="138.5" width="1" height="2000" transform="rotate(90 2000.5 138.5)" fill="#D387FF" fill-opacity="0.05"/>
<rect x="180" width="1" height="2000" fill="#D387FF" fill-opacity="0.05"/>
<rect x="2000.5" y="179.5" width="1" height="2000" transform="rotate(90 2000.5 179.5)" fill="#D387FF" fill-opacity="0.05"/>
<rect x="221" width="1" height="2000" fill="#D387FF" fill-opacity="0.05"/>
<rect x="2000.5" y="220.5" width="1" height="2000" transform="rotate(90 2000.5 220.5)" fill="#D387FF" fill-opacity="0.05"/>
<rect x="262" width="1" height="2000" fill="#D387FF" fill-opacity="0.05"/>
<rect x="2000.5" y="261.5" width="1" height="2000" transform="rotate(90 2000.5 261.5)" fill="#D387FF" fill-opacity="0.05"/>
<rect x="303" width="1" height="2000" fill="#D387FF" fill-opacity="0.05"/>
<rect x="2000.5" y="302.5" width="1" height="2000" transform="rotate(90 2000.5 302.5)" fill="#D387FF" fill-opacity="0.05"/>
<rect x="344" width="1" height="2000" fill="#D387FF" fill-opacity="0.05"/>
<rect x="2000.5" y="343.5" width="1" height="2000" transform="rotate(90 2000.5 343.5)" fill="#D387FF" fill-opacity="0.05"/>
<rect x="385" width="1" height="2000" fill="#D387FF" fill-opacity="0.05"/>
<rect x="2000.5" y="384.5" width="1" height="2000" transform="rotate(90 2000.5 384.5)" fill="#D387FF" fill-opacity="0.05"/>
<rect x="426" width="1" height="2000" fill="#D387FF" fill-opacity="0.05"/>
<rect x="2000.5" y="425.5" width="1" height="2000" transform="rotate(90 2000.5 425.5)" fill="#D387FF" fill-opacity="0.05"/>
<rect x="467" width="1" height="2000" fill="#D387FF" fill-opacity="0.05"/>
<rect x="2000.5" y="466.5" width="1" height="2000" transform="rotate(90 2000.5 466.5)" fill="#D387FF" fill-opacity="0.05"/>
<rect x="508" width="1" height="2000" fill="#D387FF" fill-opacity="0.05"/>
<rect x="2000.5" y="507.5" width="1" height="2000" transform="rotate(90 2000.5 507.5)" fill="#D387FF" fill-opacity="0.05"/>
<rect x="549" width="1" height="2000" fill="#D387FF" fill-opacity="0.05"/>
<rect x="2000.5" y="548.5" width="1" height="2000" transform="rotate(90 2000.5 548.5)" fill="#D387FF" fill-opacity="0.05"/>
<rect x="590" width="1" height="2000" fill="#D387FF" fill-opacity="0.05"/>
<rect x="2000.5" y="589.5" width="1" height="2000" transform="rotate(90 2000.5 589.5)" fill="#D387FF" fill-opacity="0.05"/>
<rect x="631" width="1" height="2000" fill="#D387FF" fill-opacity="0.05"/>
<rect x="2000.5" y="630.5" width="1" height="2000" transform="rotate(90 2000.5 630.5)" fill="#D387FF" fill-opacity="0.05"/>
<rect x="672" width="1" height="2000" fill="#D387FF" fill-opacity="0.05"/>
<rect x="2000.5" y="671.5" width="1" height="2000" transform="rotate(90 2000.5 671.5)" fill="#D387FF" fill-opacity="0.05"/>
<rect x="713" width="1" height="2000" fill="#D387FF" fill-opacity="0.05"/>
<rect x="2000.5" y="712.5" width="1" height="2000" transform="rotate(90 2000.5 712.5)" fill="#D387FF" fill-opacity="0.05"/>
<rect x="754" width="1" height="2000" fill="#D387FF" fill-opacity="0.05"/>
<rect x="2000.5" y="753.5" width="1" height="2000" transform="rotate(90 2000.5 753.5)" fill="#D387FF" fill-opacity="0.05"/>
<rect x="795" width="1" height="2000" fill="#D387FF" fill-opacity="0.05"/>
<rect x="2000.5" y="794.5" width="1" height="2000" transform="rotate(90 2000.5 794.5)" fill="#D387FF" fill-opacity="0.05"/>
<rect x="836" width="1" height="2000" fill="#D387FF" fill-opacity="0.05"/>
<rect x="2000.5" y="835.5" width="1" height="2000" transform="rotate(90 2000.5 835.5)" fill="#D387FF" fill-opacity="0.05"/>
<rect x="877" width="1" height="2000" fill="#D387FF" fill-opacity="0.05"/>
<rect x="2000.5" y="876.5" width="1" height="2000" transform="rotate(90 2000.5 876.5)" fill="#D387FF" fill-opacity="0.05"/>
<rect x="918" width="1" height="2000" fill="#D387FF" fill-opacity="0.05"/>
<rect x="2000.5" y="917.5" width="1" height="2000" transform="rotate(90 2000.5 917.5)" fill="#D387FF" fill-opacity="0.05"/>
<rect x="959" width="1" height="2000" fill="#D387FF" fill-opacity="0.05"/>
<rect x="2000.5" y="958.5" width="1" height="2000" transform="rotate(90 2000.5 958.5)" fill="#D387FF" fill-opacity="0.05"/>
<rect x="1000" width="1" height="2000" fill="#D387FF" fill-opacity="0.05"/>
<rect x="2000.5" y="999.5" width="1" height="2000" transform="rotate(90 2000.5 999.5)" fill="#D387FF" fill-opacity="0.05"/>
<rect x="1041" width="1" height="2000" fill="#D387FF" fill-opacity="0.05"/>
<rect x="2000.5" y="1040.5" width="1" height="2000" transform="rotate(90 2000.5 1040.5)" fill="#D387FF" fill-opacity="0.05"/>
<rect x="1082" width="1" height="2000" fill="#D387FF" fill-opacity="0.05"/>
<rect x="2000.5" y="1081.5" width="1" height="2000" transform="rotate(90 2000.5 1081.5)" fill="#D387FF" fill-opacity="0.05"/>
<rect x="1123" width="1" height="2000" fill="#D387FF" fill-opacity="0.05"/>
<rect x="2000.5" y="1122.5" width="1" height="2000" transform="rotate(90 2000.5 1122.5)" fill="#D387FF" fill-opacity="0.05"/>
<rect x="1164" width="1" height="2000" fill="#D387FF" fill-opacity="0.05"/>
<rect x="2000.5" y="1163.5" width="1" height="2000" transform="rotate(90 2000.5 1163.5)" fill="#D387FF" fill-opacity="0.05"/>
<rect x="1205" width="1" height="2000" fill="#D387FF" fill-opacity="0.05"/>
<rect x="2000.5" y="1204.5" width="1" height="2000" transform="rotate(90 2000.5 1204.5)" fill="#D387FF" fill-opacity="0.05"/>
<rect x="1246" width="1" height="2000" fill="#D387FF" fill-opacity="0.05"/>
<rect x="2000.5" y="1245.5" width="1" height="2000" transform="rotate(90 2000.5 1245.5)" fill="#D387FF" fill-opacity="0.05"/>
<rect x="1287" width="1" height="2000" fill="#D387FF" fill-opacity="0.05"/>
<rect x="2000.5" y="1286.5" width="1" height="2000" transform="rotate(90 2000.5 1286.5)" fill="#D387FF" fill-opacity="0.05"/>
<rect x="1328" width="1" height="2000" fill="#D387FF" fill-opacity="0.05"/>
<rect x="2000.5" y="1327.5" width="1" height="2000" transform="rotate(90 2000.5 1327.5)" fill="#D387FF" fill-opacity="0.05"/>
<rect x="1369" width="1" height="2000" fill="#D387FF" fill-opacity="0.05"/>
<rect x="2000.5" y="1368.5" width="1" height="2000" transform="rotate(90 2000.5 1368.5)" fill="#D387FF" fill-opacity="0.05"/>
<rect x="1410" width="1" height="2000" fill="#D387FF" fill-opacity="0.05"/>
<rect x="2000.5" y="1409.5" width="1" height="2000" transform="rotate(90 2000.5 1409.5)" fill="#D387FF" fill-opacity="0.05"/>
<rect x="1451" width="1" height="2000" fill="#D387FF" fill-opacity="0.05"/>
<rect x="2000.5" y="1450.5" width="1" height="2000" transform="rotate(90 2000.5 1450.5)" fill="#D387FF" fill-opacity="0.05"/>
<rect x="1492" width="1" height="2000" fill="#D387FF" fill-opacity="0.05"/>
<rect x="2000.5" y="1491.5" width="1" height="2000" transform="rotate(90 2000.5 1491.5)" fill="#D387FF" fill-opacity="0.05"/>
<rect x="1533" width="1" height="2000" fill="#D387FF" fill-opacity="0.05"/>
<rect x="2000.5" y="1532.5" width="1" height="2000" transform="rotate(90 2000.5 1532.5)" fill="#D387FF" fill-opacity="0.05"/>
<rect x="1574" width="1" height="2000" fill="#D387FF" fill-opacity="0.05"/>
<rect x="2000.5" y="1573.5" width="1" height="2000" transform="rotate(90 2000.5 1573.5)" fill="#D387FF" fill-opacity="0.05"/>
<rect x="1615" width="1" height="2000" fill="#D387FF" fill-opacity="0.05"/>
<rect x="2000.5" y="1614.5" width="1" height="2000" transform="rotate(90 2000.5 1614.5)" fill="#D387FF" fill-opacity="0.05"/>
<rect x="1656" width="1" height="2000" fill="#D387FF" fill-opacity="0.05"/>
<rect x="2000.5" y="1655.5" width="1" height="2000" transform="rotate(90 2000.5 1655.5)" fill="#D387FF" fill-opacity="0.05"/>
<rect x="1697" width="1" height="2000" fill="#D387FF" fill-opacity="0.05"/>
<rect x="2000.5" y="1696.5" width="1" height="2000" transform="rotate(90 2000.5 1696.5)" fill="#D387FF" fill-opacity="0.05"/>
<rect x="1738" width="1" height="2000" fill="#D387FF" fill-opacity="0.05"/>
<rect x="2000.5" y="1737.5" width="1" height="2000" transform="rotate(90 2000.5 1737.5)" fill="#D387FF" fill-opacity="0.05"/>
<rect x="1779" width="1" height="2000" fill="#D387FF" fill-opacity="0.05"/>
<rect x="2000.5" y="1778.5" width="1" height="2000" transform="rotate(90 2000.5 1778.5)" fill="#D387FF" fill-opacity="0.05"/>
<rect x="1820" width="1" height="2000" fill="#D387FF" fill-opacity="0.05"/>
<rect x="2000.5" y="1819.5" width="1" height="2000" transform="rotate(90 2000.5 1819.5)" fill="#D387FF" fill-opacity="0.05"/>
<rect x="1861" width="1" height="2000" fill="#D387FF" fill-opacity="0.05"/>
<rect x="2000.5" y="1860.5" width="1" height="2000" transform="rotate(90 2000.5 1860.5)" fill="#D387FF" fill-opacity="0.05"/>
<rect x="1902" width="1" height="2000" fill="#D387FF" fill-opacity="0.05"/>
<rect x="2000.5" y="1901.5" width="1" height="2000" transform="rotate(90 2000.5 1901.5)" fill="#D387FF" fill-opacity="0.05"/>
<rect x="1943" width="1" height="2000" fill="#D387FF" fill-opacity="0.05"/>
<rect x="2000.5" y="1942.5" width="1" height="2000" transform="rotate(90 2000.5 1942.5)" fill="#D387FF" fill-opacity="0.05"/>
<rect x="1984" width="1" height="2000" fill="#D387FF" fill-opacity="0.05"/>
<rect x="2000.5" y="1983.5" width="1" height="2000" transform="rotate(90 2000.5 1983.5)" fill="#D387FF" fill-opacity="0.05"/>
</svg>
