<svg width="48" height="48" viewBox="0 0 48 48" fill="none" xmlns="http://www.w3.org/2000/svg">
<path fill-rule="evenodd" clip-rule="evenodd" d="M30.8648 3.92033C27.798 -1.30677 20.2408 -1.30678 17.1739 3.92033L17.0626 4.11017C15.6477 6.52159 13.0685 8.01072 10.2727 8.0303L10.0526 8.03184C3.99234 8.07427 0.21378 14.619 3.20714 19.8885L3.31586 20.0799C4.69679 22.5109 4.69679 25.4892 3.31586 27.9202L3.20714 28.1114C0.213781 33.3811 3.99234 39.9257 10.0526 39.9682L10.2727 39.9696C13.0684 39.9893 15.6477 41.4785 17.0626 43.8898L17.1739 44.0796C20.2408 49.3068 27.798 49.3068 30.8648 44.0796L30.9761 43.8898C32.3912 41.4785 34.9702 39.9893 37.766 39.9696L37.9863 39.9682C44.0465 39.9257 47.8251 33.3811 44.8316 28.1114L44.7228 27.9202C43.3419 25.4892 43.3419 22.5109 44.7228 20.0799L44.8316 19.8885C47.8251 14.619 44.0465 8.07427 37.9863 8.03184L37.766 8.0303C34.9702 8.01072 32.3912 6.52159 30.9761 4.11017L30.8648 3.92033ZM24.0195 35.905C30.5943 35.905 35.9244 30.575 35.9244 24C35.9244 17.425 30.5943 12.0949 24.0195 12.0949C17.4444 12.0949 12.1143 17.425 12.1143 24C12.1143 30.575 17.4444 35.905 24.0195 35.905Z" fill="url(#paint0_linear_2013_1665)"/>
<defs>
<linearGradient id="paint0_linear_2013_1665" x1="24.0194" y1="0" x2="24.0194" y2="48" gradientUnits="userSpaceOnUse">
<stop stop-color="#49235F"/>
<stop offset="1" stop-color="#D387FF"/>
</linearGradient>
</defs>
</svg>
